<?xml version="1.0" encoding="UTF-8"?>
<svg id="Layer_1" xmlns="http://www.w3.org/2000/svg" version="1.1" viewBox="0 0 316.21 60">
  <!-- Generator: Adobe Illustrator 30.8.1, SVG Export Plug-In . SVG Version: 2.1.4 Build 1)  -->
  <defs>
    <style>
      .st0 {
        fill: #13171b;
      }
    </style>
  </defs>
  <g>
    <path class="st0" d="M71.49,38.24c-.26-.42-.58-.78-.97-1.1-.39-.31-.83-.56-1.32-.73s-1-.26-1.54-.26c-.98,0-1.81.19-2.49.57s-1.24.89-1.66,1.52c-.43.64-.73,1.36-.93,2.18s-.29,1.65-.29,2.52.1,1.64.29,2.42.5,1.49.93,2.12c.43.63.98,1.13,1.66,1.51.68.38,1.51.57,2.49.57,1.33,0,2.37-.41,3.12-1.22s1.21-1.88,1.37-3.21h4.21c-.11,1.24-.4,2.36-.86,3.35-.46,1-1.07,1.85-1.83,2.55s-1.64,1.24-2.66,1.61c-1.02.37-2.13.55-3.35.55-1.51,0-2.88-.26-4.09-.79-1.21-.53-2.23-1.25-3.06-2.18-.83-.92-1.47-2.01-1.91-3.26s-.66-2.59-.66-4.03.22-2.85.66-4.12c.44-1.26,1.08-2.37,1.91-3.31s1.85-1.68,3.06-2.22,2.57-.8,4.09-.8c1.09,0,2.12.16,3.09.47.97.32,1.84.77,2.6,1.37.77.6,1.4,1.34,1.9,2.23s.81,1.9.94,3.05h-4.21c-.07-.5-.24-.96-.5-1.37h.01Z"/>
    <path class="st0" d="M78.75,42.82c.06-.92.29-1.69.69-2.3.41-.61.92-1.1,1.55-1.47.63-.37,1.33-.63,2.12-.79s1.57-.24,2.37-.24c.72,0,1.45.05,2.19.15.74.1,1.41.3,2.02.6.61.3,1.11.71,1.5,1.23.39.53.58,1.22.58,2.09v7.45c0,.65.04,1.26.11,1.86.07.59.2,1.03.39,1.33h-3.99c-.07-.22-.13-.45-.18-.68s-.08-.47-.1-.71c-.63.65-1.37,1.1-2.22,1.36-.85.26-1.72.39-2.6.39-.69,0-1.32-.08-1.91-.25-.59-.17-1.11-.43-1.55-.77s-.79-.8-1.04-1.33c-.25-.54-.37-1.17-.37-1.91,0-.81.14-1.48.43-2.01s.65-.95,1.11-1.26c.45-.31.97-.55,1.55-.71s1.17-.28,1.76-.37c.59-.09,1.17-.17,1.74-.22.57-.06,1.08-.14,1.52-.25s.79-.27,1.05-.48.38-.52.36-.93c0-.43-.07-.76-.21-1.01s-.32-.44-.55-.58c-.23-.14-.5-.23-.8-.28-.31-.05-.63-.07-.98-.07-.77,0-1.39.17-1.83.5s-.7.89-.77,1.66h-3.94ZM87.84,45.73c-.17.15-.37.26-.62.35-.25.08-.52.15-.8.21-.29.06-.59.1-.9.14-.31.04-.63.08-.94.14-.3.06-.59.13-.87.22-.29.09-.54.22-.75.37-.21.16-.38.36-.51.6-.13.24-.2.54-.2.91s.06.65.2.89c.13.24.31.43.53.57s.48.24.77.29c.3.06.6.08.92.08.77,0,1.38-.13,1.8-.39s.74-.57.94-.93c.2-.36.33-.72.37-1.1.05-.37.07-.66.07-.89v-1.47h0Z"/>
    <path class="st0" d="M98.56,38.42v1.83h.06c.48-.77,1.09-1.34,1.83-1.69s1.55-.53,2.44-.53c1.13,0,2.1.21,2.91.64.81.43,1.49.99,2.02,1.69.54.7.93,1.52,1.19,2.45s.39,1.91.39,2.92-.13,1.88-.39,2.77-.65,1.67-1.18,2.36c-.53.69-1.18,1.23-1.97,1.63-.79.41-1.7.61-2.76.61-.89,0-1.7-.18-2.45-.54s-1.36-.89-1.84-1.59h-.06v6.79h-3.93v-19.34s3.74,0,3.74,0ZM103.68,49.78c.43-.26.79-.6,1.05-1.01s.46-.9.57-1.45.17-1.12.17-1.69-.06-1.14-.18-1.69-.32-1.05-.6-1.48-.63-.79-1.07-1.05c-.43-.27-.96-.4-1.59-.4s-1.19.13-1.62.4-.79.62-1.05,1.04c-.27.43-.46.91-.57,1.47s-.17,1.13-.17,1.72.06,1.14.18,1.69.31,1.04.58,1.45c.27.42.62.75,1.07,1.01.44.26.98.39,1.61.39s1.19-.13,1.62-.39h0Z"/>
    <path class="st0" d="M111.86,36.2v-3.24h3.94v3.24h-3.94ZM115.8,38.42v14.33h-3.94v-14.33h3.94Z"/>
    <path class="st0" d="M126.77,38.42v2.63h-2.88v7.09c0,.66.11,1.11.33,1.33s.66.33,1.33.33c.22,0,.43,0,.64-.03s.4-.05.58-.08v3.05c-.33.06-.7.09-1.11.11s-.8.03-1.19.03c-.61,0-1.19-.04-1.73-.13s-1.03-.24-1.44-.48-.74-.58-.98-1.03c-.24-.44-.36-1.03-.36-1.74v-8.45h-2.38v-2.63h2.38v-4.3h3.94v4.3h2.88,0Z"/>
    <path class="st0" d="M128.49,42.82c.06-.92.29-1.69.69-2.3.41-.61.92-1.1,1.55-1.47.63-.37,1.33-.63,2.12-.79s1.57-.24,2.37-.24c.72,0,1.45.05,2.19.15.74.1,1.41.3,2.02.6s1.11.71,1.5,1.23c.39.53.58,1.22.58,2.09v7.45c0,.65.04,1.26.11,1.86.07.59.2,1.03.39,1.33h-3.99c-.07-.22-.13-.45-.18-.68-.05-.23-.08-.47-.1-.71-.63.65-1.37,1.1-2.22,1.36-.85.26-1.72.39-2.6.39-.69,0-1.32-.08-1.91-.25s-1.11-.43-1.55-.77-.79-.8-1.04-1.33c-.25-.54-.37-1.17-.37-1.91,0-.81.14-1.48.43-2.01s.65-.95,1.11-1.26c.45-.31.97-.55,1.55-.71s1.17-.28,1.76-.37,1.17-.17,1.74-.22c.57-.06,1.08-.14,1.52-.25s.79-.27,1.05-.48.38-.52.36-.93c0-.43-.07-.76-.21-1.01s-.32-.44-.55-.58c-.23-.14-.5-.23-.8-.28-.31-.05-.63-.07-.98-.07-.77,0-1.39.17-1.83.5s-.7.89-.77,1.66h-3.94,0ZM137.58,45.73c-.17.15-.37.26-.62.35-.25.08-.52.15-.8.21-.29.06-.59.1-.9.14s-.63.08-.94.14c-.3.06-.59.13-.87.22-.29.09-.54.22-.75.37-.21.16-.38.36-.51.6-.13.24-.2.54-.2.91s.06.65.2.89c.13.24.31.43.53.57s.48.24.77.29c.3.06.6.08.92.08.77,0,1.38-.13,1.8-.39s.74-.57.94-.93.33-.72.37-1.1c.05-.37.07-.66.07-.89v-1.47h-.01Z"/>
    <path class="st0" d="M148.61,32.96v19.78h-3.94v-19.78h3.94Z"/>
    <path class="st0" d="M170.5,32.96c.89,0,1.69.14,2.4.43.71.29,1.32.68,1.83,1.18s.9,1.08,1.16,1.73c.27.66.4,1.36.4,2.12,0,1.16-.25,2.17-.73,3.02-.49.85-1.29,1.5-2.4,1.94v.06c.54.15.98.37,1.33.68s.64.66.86,1.08c.22.42.38.87.48,1.37.1.5.17,1,.21,1.5.02.31.04.68.06,1.11s.05.86.1,1.3.12.86.22,1.26c.1.4.25.73.46,1.01h-4.35c-.24-.63-.39-1.38-.44-2.25-.06-.87-.14-1.7-.25-2.49-.15-1.03-.46-1.79-.94-2.27s-1.26-.72-2.36-.72h-4.35v7.73h-4.35v-19.78h10.67,0ZM168.95,41.91c1,0,1.74-.22,2.25-.66.5-.44.75-1.16.75-2.16s-.25-1.66-.75-2.09-1.25-.65-2.25-.65h-4.77v5.57h4.77Z"/>
    <path class="st0" d="M183.63,49.31c.59.57,1.44.86,2.55.86.8,0,1.48-.2,2.05-.6s.92-.82,1.05-1.26h3.46c-.55,1.72-1.4,2.95-2.55,3.68s-2.53,1.11-4.16,1.11c-1.13,0-2.14-.18-3.05-.54s-1.67-.87-2.3-1.54c-.63-.66-1.11-1.46-1.45-2.38-.34-.92-.51-1.94-.51-3.05s.17-2.07.53-2.99.85-1.72,1.5-2.4c.65-.67,1.42-1.21,2.31-1.59s1.89-.58,2.98-.58c1.22,0,2.28.24,3.19.71.9.47,1.65,1.1,2.23,1.9.58.8,1,1.7,1.26,2.71.26,1.02.35,2.08.28,3.19h-10.34c.05,1.28.38,2.2.97,2.77h0ZM188.08,41.77c-.47-.52-1.19-.77-2.15-.77-.63,0-1.15.11-1.57.32-.42.21-.75.47-1,.79s-.43.65-.53,1-.16.66-.18.94h6.4c-.18-1-.51-1.76-.98-2.27h0Z"/>
    <path class="st0" d="M195.16,42.82c.06-.92.29-1.69.69-2.3.41-.61.92-1.1,1.55-1.47s1.33-.63,2.12-.79,1.57-.24,2.37-.24c.72,0,1.45.05,2.19.15.74.1,1.41.3,2.02.6s1.11.71,1.5,1.23c.39.53.58,1.22.58,2.09v7.45c0,.65.04,1.26.11,1.86.07.59.2,1.03.39,1.33h-3.99c-.07-.22-.13-.45-.18-.68-.05-.23-.08-.47-.1-.71-.63.65-1.37,1.1-2.22,1.36s-1.72.39-2.6.39c-.69,0-1.32-.08-1.91-.25s-1.11-.43-1.55-.77-.79-.8-1.04-1.33c-.25-.54-.37-1.17-.37-1.91,0-.81.14-1.48.43-2.01s.65-.95,1.11-1.26c.45-.31.97-.55,1.55-.71s1.17-.28,1.76-.37,1.17-.17,1.74-.22c.57-.06,1.08-.14,1.52-.25s.79-.27,1.05-.48c.26-.21.38-.52.36-.93,0-.43-.07-.76-.21-1.01s-.32-.44-.55-.58c-.23-.14-.5-.23-.8-.28-.31-.05-.63-.07-.98-.07-.77,0-1.39.17-1.83.5s-.7.89-.77,1.66h-3.94,0ZM204.25,45.73c-.17.15-.37.26-.62.35-.25.08-.52.15-.8.21-.29.06-.59.1-.9.14s-.63.08-.94.14c-.3.06-.59.13-.87.22-.29.09-.54.22-.75.37-.21.16-.38.36-.51.6-.13.24-.2.54-.2.91s.06.65.2.89c.13.24.31.43.53.57s.48.24.77.29c.3.06.6.08.92.08.77,0,1.38-.13,1.8-.39.43-.26.74-.57.94-.93s.33-.72.37-1.1c.05-.37.07-.66.07-.89v-1.47h-.01Z"/>
    <path class="st0" d="M215.28,32.96v19.78h-3.94v-19.78h3.94Z"/>
    <path class="st0" d="M241.3,32.96v3.66h-10.45v4.24h9.59v3.38h-9.59v4.85h10.67v3.66h-15.02v-19.79h14.8Z"/>
    <path class="st0" d="M247.36,49.18c.17.31.4.55.68.75s.6.34.96.43.73.14,1.12.14c.28,0,.57-.03.87-.1.31-.06.58-.17.83-.31s.46-.32.62-.55c.17-.23.25-.52.25-.87,0-.59-.39-1.03-1.18-1.33s-1.88-.59-3.28-.89c-.57-.13-1.13-.28-1.68-.46-.54-.17-1.03-.41-1.45-.69-.43-.28-.77-.65-1.02-1.08-.26-.43-.39-.96-.39-1.59,0-.92.18-1.68.54-2.27s.84-1.06,1.43-1.4,1.26-.58,2-.72,1.5-.21,2.27-.21,1.53.07,2.26.22,1.38.4,1.95.75,1.05.82,1.43,1.4c.38.58.61,1.32.68,2.2h-3.74c-.06-.76-.34-1.27-.86-1.54s-1.13-.4-1.83-.4c-.22,0-.46,0-.72.04s-.5.09-.71.18-.39.23-.54.4c-.15.18-.22.41-.22.71,0,.35.13.64.39.86s.6.4,1.01.54.89.26,1.43.37,1.08.23,1.63.36c.57.13,1.13.29,1.68.47.54.18,1.03.43,1.45.73s.77.68,1.03,1.14c.26.45.39,1.01.39,1.68,0,.94-.19,1.73-.57,2.37s-.87,1.15-1.48,1.54-1.31.66-2.09.82-1.59.24-2.4.24-1.64-.08-2.44-.25-1.5-.44-2.12-.83c-.62-.39-1.13-.9-1.52-1.54-.4-.64-.61-1.44-.65-2.4h3.74c0,.43.09.79.26,1.1h0Z"/>
    <path class="st0" d="M266.79,38.42v2.63h-2.88v7.09c0,.66.11,1.11.33,1.33s.66.33,1.33.33c.22,0,.43,0,.64-.03s.4-.05.58-.08v3.05c-.33.06-.7.09-1.11.11-.41.02-.8.03-1.19.03-.61,0-1.19-.04-1.73-.13s-1.03-.24-1.44-.48-.74-.58-.98-1.03c-.24-.44-.36-1.03-.36-1.74v-8.45h-2.38v-2.63h2.38v-4.3h3.94v4.3h2.88,0Z"/>
    <path class="st0" d="M268.51,42.82c.06-.92.29-1.69.69-2.3.41-.61.92-1.1,1.55-1.47.63-.37,1.33-.63,2.12-.79s1.57-.24,2.37-.24c.72,0,1.45.05,2.19.15.74.1,1.41.3,2.02.6s1.11.71,1.5,1.23c.39.53.58,1.22.58,2.09v7.45c0,.65.04,1.26.11,1.86.07.59.2,1.03.39,1.33h-3.99c-.07-.22-.13-.45-.18-.68s-.08-.47-.1-.71c-.63.65-1.37,1.1-2.22,1.36s-1.72.39-2.6.39c-.69,0-1.32-.08-1.91-.25s-1.11-.43-1.55-.77-.79-.8-1.04-1.33c-.25-.54-.37-1.17-.37-1.91,0-.81.14-1.48.43-2.01s.65-.95,1.11-1.26c.45-.31.97-.55,1.55-.71s1.17-.28,1.76-.37,1.17-.17,1.74-.22c.57-.06,1.08-.14,1.52-.25s.79-.27,1.05-.48.38-.52.36-.93c0-.43-.07-.76-.21-1.01s-.32-.44-.55-.58c-.23-.14-.5-.23-.8-.28-.31-.05-.63-.07-.98-.07-.77,0-1.39.17-1.83.5-.44.33-.7.89-.77,1.66h-3.94,0ZM277.6,45.73c-.17.15-.37.26-.62.35-.25.08-.52.15-.8.21-.29.06-.59.1-.9.14s-.63.08-.94.14c-.3.06-.59.13-.87.22-.29.09-.54.22-.75.37-.21.16-.38.36-.51.6-.13.24-.2.54-.2.91s.06.65.2.89c.13.24.31.43.53.57s.48.24.77.29c.3.06.6.08.92.08.77,0,1.38-.13,1.8-.39s.74-.57.94-.93.33-.72.37-1.1c.05-.37.07-.66.07-.89v-1.47h-.01Z"/>
    <path class="st0" d="M292.45,38.42v2.63h-2.88v7.09c0,.66.11,1.11.33,1.33s.66.33,1.33.33c.22,0,.43,0,.64-.03s.4-.05.58-.08v3.05c-.33.06-.7.09-1.11.11-.41.02-.8.03-1.19.03-.61,0-1.19-.04-1.73-.13s-1.03-.24-1.44-.48-.74-.58-.98-1.03c-.24-.44-.36-1.03-.36-1.74v-8.45h-2.38v-2.63h2.38v-4.3h3.94v4.3h2.88,0Z"/>
    <path class="st0" d="M298.55,49.31c.59.57,1.44.86,2.55.86.8,0,1.48-.2,2.05-.6s.92-.82,1.05-1.26h3.46c-.55,1.72-1.4,2.95-2.55,3.68-1.14.74-2.53,1.11-4.16,1.11-1.13,0-2.14-.18-3.05-.54-.91-.36-1.67-.87-2.3-1.54-.63-.66-1.11-1.46-1.45-2.38-.34-.92-.51-1.94-.51-3.05s.17-2.07.53-2.99.85-1.72,1.5-2.4c.65-.67,1.42-1.21,2.31-1.59s1.89-.58,2.98-.58c1.22,0,2.28.24,3.19.71.9.47,1.65,1.1,2.23,1.9.58.8,1,1.7,1.26,2.71.26,1.02.35,2.08.28,3.19h-10.34c.05,1.28.38,2.2.97,2.77h0ZM302.99,41.77c-.47-.52-1.19-.77-2.15-.77-.63,0-1.15.11-1.57.32s-.75.47-1,.79-.43.65-.53,1-.16.66-.18.94h6.4c-.18-1-.51-1.76-.98-2.27h.01Z"/>
  </g>
  <g>
    <path class="st0" d="M69.3,7.22l7.4,19.78h-4.52l-1.5-4.41h-7.4l-1.55,4.41h-4.38l7.48-19.78h4.47ZM69.55,19.36l-2.49-7.26h-.06l-2.58,7.26h5.13Z"/>
    <path class="st0" d="M82.05,7.22v19.79h-3.94V7.22h3.94Z"/>
    <path class="st0" d="M88.7,27.01l-4.91-14.33h4.13l3.02,9.78h.06l3.02-9.78h3.91l-4.85,14.33h-4.38,0Z"/>
    <path class="st0" d="M99.39,17.09c.06-.92.29-1.69.69-2.3.41-.61.92-1.1,1.55-1.47.63-.37,1.33-.63,2.12-.79s1.57-.24,2.37-.24c.72,0,1.45.05,2.19.15.74.1,1.41.3,2.02.6.61.3,1.11.71,1.5,1.23.39.53.58,1.22.58,2.09v7.45c0,.65.04,1.26.11,1.86.07.59.2,1.03.39,1.33h-3.99c-.07-.22-.13-.45-.18-.68s-.08-.47-.1-.71c-.63.65-1.37,1.1-2.22,1.36s-1.72.39-2.6.39c-.69,0-1.32-.08-1.91-.25-.59-.17-1.11-.43-1.55-.77s-.79-.8-1.04-1.33c-.25-.54-.37-1.17-.37-1.91,0-.81.14-1.48.43-2.01s.65-.95,1.11-1.26c.45-.31.97-.55,1.55-.71s1.17-.28,1.76-.37c.59-.09,1.17-.17,1.74-.22.57-.06,1.08-.14,1.52-.25s.79-.27,1.05-.48.38-.52.36-.93c0-.43-.07-.76-.21-1.01s-.32-.44-.55-.58-.5-.23-.8-.28-.63-.07-.98-.07c-.77,0-1.39.17-1.83.5s-.7.89-.77,1.66h-3.94ZM108.48,20c-.17.15-.37.26-.62.35-.25.08-.52.15-.8.21-.29.06-.59.1-.9.14-.31.04-.63.08-.94.14-.3.06-.59.13-.87.22-.29.09-.54.22-.75.37-.21.16-.38.36-.51.6-.13.24-.2.54-.2.91s.06.65.2.89c.13.24.31.43.53.57s.48.24.77.29c.3.06.6.08.92.08.77,0,1.38-.13,1.8-.39s.74-.57.94-.93c.2-.36.33-.72.37-1.1.05-.37.07-.66.07-.89v-1.47h0Z"/>
    <path class="st0" d="M119.21,12.68v2.66h.06c.18-.44.43-.85.75-1.23.31-.38.67-.7,1.08-.97s.84-.47,1.3-.62.94-.22,1.44-.22c.26,0,.54.05.86.14v3.66c-.18-.04-.41-.07-.66-.1s-.51-.04-.75-.04c-.72,0-1.33.12-1.83.36s-.9.57-1.21.98c-.31.42-.52.9-.65,1.45s-.2,1.15-.2,1.8v6.46h-3.93v-14.32h3.74Z"/>
    <path class="st0" d="M129.96,23.57c.59.57,1.44.86,2.55.86.8,0,1.48-.2,2.05-.6s.92-.82,1.05-1.26h3.46c-.55,1.72-1.4,2.95-2.55,3.68-1.14.74-2.53,1.11-4.16,1.11-1.13,0-2.14-.18-3.05-.54s-1.67-.87-2.3-1.54c-.63-.66-1.11-1.46-1.45-2.38-.34-.92-.51-1.94-.51-3.05s.17-2.07.53-2.99.85-1.72,1.5-2.4,1.42-1.21,2.31-1.59,1.89-.58,2.98-.58c1.22,0,2.28.24,3.19.71.9.47,1.65,1.1,2.23,1.9.58.8,1,1.7,1.26,2.71.26,1.02.35,2.08.28,3.19h-10.34c.05,1.28.38,2.2.97,2.77h0ZM134.41,16.03c-.47-.52-1.19-.77-2.15-.77-.63,0-1.15.11-1.57.32-.42.21-.75.47-1,.79-.25.32-.43.65-.53,1s-.16.66-.18.94h6.4c-.18-1-.51-1.76-.98-2.27h0Z"/>
    <path class="st0" d="M148.22,15.65h-6.9v-2.97h12.08v2.97l-7.45,8.4h7.98v2.97h-13.16v-2.97l7.45-8.4Z"/>
    <path class="st0" d="M172.57,26.79c-.9.39-1.91.58-3.04.58-.89,0-1.72-.13-2.51-.39s-1.47-.64-2.04-1.15c-.57-.51-1.03-1.13-1.36-1.86-.33-.73-.5-1.57-.5-2.51,0-.7.12-1.34.36-1.93.24-.58.57-1.11.98-1.58s.89-.89,1.43-1.26,1.09-.69,1.66-.97c-.54-.65-.98-1.29-1.34-1.94s-.54-1.4-.54-2.27c0-.68.14-1.3.43-1.86.28-.55.67-1.03,1.15-1.43.48-.4,1.03-.7,1.65-.91s1.26-.32,1.93-.32c.76,0,1.46.1,2.12.31.65.2,1.23.5,1.72.9s.88.89,1.16,1.48.43,1.28.43,2.05c0,1.16-.34,2.14-1.01,2.94-.67.8-1.51,1.46-2.51,2l2.55,3.13c.2-.37.36-.75.47-1.15s.2-.8.25-1.21h3.41c-.09.89-.3,1.74-.61,2.58s-.75,1.6-1.3,2.3l4.02,4.68h-4.82l-1.61-1.97c-.8.77-1.64,1.36-2.54,1.74h0v.02ZM168.62,18.81c-.33.2-.63.44-.89.72s-.47.58-.62.91c-.16.33-.24.7-.24,1.11,0,.35.08.69.24,1.01s.36.6.62.83.56.42.9.55.7.21,1.07.21c.7,0,1.32-.16,1.84-.48s1.02-.74,1.48-1.26l-3.38-4.13c-.35.15-.69.32-1.03.53h.01ZM172.29,10.19c-.36-.37-.78-.55-1.26-.55s-.9.16-1.25.48-.53.74-.53,1.26c0,.63.17,1.16.5,1.61.33.44.68.9,1.05,1.36.55-.35,1.03-.73,1.43-1.14.4-.41.6-.97.6-1.69,0-.52-.18-.96-.54-1.33h0Z"/>
    <path class="st0" d="M196.96,7.22l4.63,13.61h.06l4.38-13.61h6.12v19.79h-4.07v-14.02h-.06l-4.85,14.02h-3.35l-4.85-13.88h-.05v13.88h-4.07V7.22h6.12,0Z"/>
    <path class="st0" d="M215.39,17.09c.06-.92.29-1.69.69-2.3.41-.61.92-1.1,1.55-1.47s1.33-.63,2.12-.79,1.57-.24,2.37-.24c.72,0,1.45.05,2.19.15.74.1,1.41.3,2.02.6s1.11.71,1.5,1.23c.39.53.58,1.22.58,2.09v7.45c0,.65.04,1.26.11,1.86s.2,1.03.39,1.33h-3.99c-.07-.22-.13-.45-.18-.68-.05-.23-.08-.47-.1-.71-.63.65-1.37,1.1-2.22,1.36s-1.72.39-2.6.39c-.69,0-1.32-.08-1.91-.25s-1.11-.43-1.55-.77-.79-.8-1.04-1.33c-.25-.54-.37-1.17-.37-1.91,0-.81.14-1.48.43-2.01s.65-.95,1.11-1.26c.45-.31.97-.55,1.55-.71s1.17-.28,1.76-.37,1.17-.17,1.74-.22c.57-.06,1.08-.14,1.52-.25s.79-.27,1.05-.48c.26-.21.38-.52.36-.93,0-.43-.07-.76-.21-1.01s-.32-.44-.55-.58-.5-.23-.8-.28-.63-.07-.98-.07c-.77,0-1.39.17-1.83.5s-.7.89-.77,1.66h-3.94,0ZM224.48,20c-.17.15-.37.26-.62.35-.25.08-.52.15-.8.21-.29.06-.59.1-.9.14-.31.04-.63.08-.94.14-.3.06-.59.13-.87.22-.29.09-.54.22-.75.37-.21.16-.38.36-.51.6-.13.24-.2.54-.2.91s.06.65.2.89c.13.24.31.43.53.57s.48.24.77.29c.3.06.6.08.92.08.77,0,1.38-.13,1.8-.39.43-.26.74-.57.94-.93s.33-.72.37-1.1c.05-.37.07-.66.07-.89v-1.47h-.01Z"/>
    <path class="st0" d="M235.2,12.68v2.66h.06c.18-.44.43-.85.75-1.23.31-.38.67-.7,1.08-.97s.84-.47,1.3-.62.94-.22,1.44-.22c.26,0,.54.05.86.14v3.66c-.18-.04-.41-.07-.66-.1s-.51-.04-.75-.04c-.72,0-1.33.12-1.83.36s-.9.57-1.21.98c-.31.42-.52.9-.65,1.45s-.2,1.15-.2,1.8v6.46h-3.93v-14.32h3.74,0Z"/>
    <path class="st0" d="M245.55,23.45c.17.31.4.55.68.75s.6.34.96.43.73.14,1.12.14c.28,0,.57-.03.87-.1.31-.06.58-.17.83-.31s.46-.32.62-.55c.17-.23.25-.52.25-.87,0-.59-.39-1.03-1.18-1.33s-1.88-.59-3.28-.89c-.57-.13-1.13-.28-1.68-.46-.54-.17-1.03-.41-1.45-.69-.43-.28-.77-.65-1.02-1.08-.26-.43-.39-.96-.39-1.59,0-.92.18-1.68.54-2.27s.84-1.06,1.43-1.4,1.26-.58,2-.72,1.5-.21,2.27-.21,1.53.07,2.26.22c.73.15,1.38.4,1.95.75s1.05.82,1.43,1.4c.38.58.61,1.32.68,2.2h-3.74c-.06-.76-.34-1.27-.86-1.54-.52-.27-1.13-.4-1.83-.4-.22,0-.46.01-.72.04s-.5.09-.71.18-.39.23-.54.4c-.15.18-.22.41-.22.71,0,.35.13.64.39.86s.6.4,1.01.54.89.26,1.43.37,1.08.23,1.63.36c.57.13,1.13.29,1.68.47.54.18,1.03.43,1.45.73.43.31.77.68,1.03,1.14s.39,1.01.39,1.68c0,.94-.19,1.73-.57,2.37s-.87,1.15-1.48,1.54-1.31.66-2.09.82-1.59.24-2.4.24-1.64-.08-2.44-.25-1.5-.44-2.12-.83-1.13-.9-1.52-1.54c-.4-.64-.61-1.44-.65-2.4h3.74c0,.43.09.79.26,1.1h0Z"/>
    <path class="st0" d="M256.96,17.09c.06-.92.29-1.69.69-2.3.41-.61.92-1.1,1.55-1.47s1.33-.63,2.12-.79,1.57-.24,2.37-.24c.72,0,1.45.05,2.19.15.74.1,1.41.3,2.02.6s1.11.71,1.5,1.23c.39.53.58,1.22.58,2.09v7.45c0,.65.04,1.26.11,1.86s.2,1.03.39,1.33h-3.99c-.07-.22-.13-.45-.18-.68s-.08-.47-.1-.71c-.63.65-1.37,1.1-2.22,1.36s-1.72.39-2.6.39c-.69,0-1.32-.08-1.91-.25s-1.11-.43-1.55-.77-.79-.8-1.04-1.33c-.25-.54-.37-1.17-.37-1.91,0-.81.14-1.48.43-2.01s.65-.95,1.11-1.26c.45-.31.97-.55,1.55-.71s1.17-.28,1.76-.37,1.17-.17,1.74-.22c.57-.06,1.08-.14,1.52-.25s.79-.27,1.05-.48c.26-.21.38-.52.36-.93,0-.43-.07-.76-.21-1.01-.14-.25-.32-.44-.55-.58-.23-.14-.5-.23-.8-.28s-.63-.07-.98-.07c-.77,0-1.39.17-1.83.5-.44.33-.7.89-.77,1.66h-3.94,0ZM266.05,20c-.17.15-.37.26-.62.35-.25.08-.52.15-.8.21-.29.06-.59.1-.9.14-.31.04-.63.08-.94.14-.3.06-.59.13-.87.22-.29.09-.54.22-.75.37-.21.16-.38.36-.51.6s-.2.54-.2.91.06.65.2.89c.13.24.31.43.53.57s.48.24.77.29c.3.06.6.08.92.08.77,0,1.38-.13,1.8-.39.43-.26.74-.57.94-.93s.33-.72.37-1.1c.05-.37.07-.66.07-.89v-1.47h-.01Z"/>
    <path class="st0" d="M277.08,7.22v19.79h-3.94V7.22h3.94Z"/>
  </g>
  <g>
    <polygon class="st0" points="34.76 7.17 7.72 52.79 13.97 52.79 35.96 14.09 35.96 52.79 40.86 52.79 40.86 7.17 34.76 7.17"/>
    <polygon class="st0" points="34.35 20.36 29.42 29.03 29.42 52.79 34.35 52.79 34.35 20.36"/>
    <polygon class="st0" points="42.47 20.36 47.4 29.03 47.4 52.79 42.47 52.79 42.47 20.36"/>
  </g>
</svg>